<?xml version="1.0" encoding="UTF-8" standalone="no"?>
<!-- Created with Inkscape (http://www.inkscape.org/) -->

<svg
   width="430"
   height="430"
   viewBox="0 0 123.57998 123.57998"
   version="1.1"
   id="svg1"
   inkscape:version="1.4.4 (dcaf3e7d9e, 2026-05-05)"
   sodipodi:docname="ExpenseManagerLogo.svg"
   xml:space="preserve"
   inkscape:export-filename="/home/mahesh/Pictures/androidIcons/ic_fg.png"
   inkscape:export-xdpi="228.61395"
   inkscape:export-ydpi="228.61395"
   xmlns:inkscape="http://www.inkscape.org/namespaces/inkscape"
   xmlns:sodipodi="http://sodipodi.sourceforge.net/DTD/sodipodi-0.dtd"
   xmlns:xlink="http://www.w3.org/1999/xlink"
   xmlns="http://www.w3.org/2000/svg"
   xmlns:svg="http://www.w3.org/2000/svg"><sodipodi:namedview
     id="namedview1"
     pagecolor="#ffffff"
     bordercolor="#000000"
     borderopacity="0.25"
     inkscape:showpageshadow="2"
     inkscape:pageopacity="0.0"
     inkscape:pagecheckerboard="0"
     inkscape:deskcolor="#d1d1d1"
     inkscape:document-units="px"
     inkscape:zoom="1.2296198"
     inkscape:cx="202.09499"
     inkscape:cy="268.37564"
     inkscape:window-width="1366"
     inkscape:window-height="699"
     inkscape:window-x="0"
     inkscape:window-y="0"
     inkscape:window-maximized="1"
     inkscape:current-layer="layer4"
     inkscape:antialias-rendering="true"
     showgrid="false" /><defs
     id="defs1"><linearGradient
       id="swatch1"><stop
         style="stop-color:#a50000;stop-opacity:1;"
         offset="0"
         id="stop1" /></linearGradient><rect
       x="130.12152"
       y="206.26401"
       width="61.807723"
       height="18.195611"
       id="rect2" /><linearGradient
       inkscape:collect="always"
       xlink:href="#swatch1"
       id="linearGradient1"
       x1="0"
       y1="61.789989"
       x2="123.57998"
       y2="61.789989"
       gradientUnits="userSpaceOnUse" /></defs><g
     inkscape:groupmode="layer"
     id="layer5"
     inkscape:label="background"
     style="display:inline;fill:url(#linearGradient1)"><rect
       style="display:inline;fill:#0e150e;fill-opacity:1;stroke-width:1.7814;stroke-opacity:0.997746"
       id="rect16"
       width="123.57998"
       height="123.57998"
       x="0"
       y="0"
       inkscape:label="rect16" /></g><g
     inkscape:groupmode="layer"
     id="g17"
     inkscape:label="Circular background"
     style="display:inline"><rect
       style="display:none;fill:#0f0069;fill-opacity:1;stroke-width:1.7814;stroke-opacity:0.997746"
       id="rect17"
       width="123.57998"
       height="123.57998"
       x="0"
       y="0"
       inkscape:label="rect16"
       rx="4.9863086" /><circle
       style="fill:#0e150e;fill-opacity:1;stroke-width:3.68123;stroke-opacity:0.997746"
       id="path17"
       cx="61.789989"
       cy="61.789989"
       r="61.789989" /></g><g
     inkscape:groupmode="layer"
     id="layer4"
     inkscape:label="UpperCurve"
     style="display:inline;fill:#ffffff"
     transform="matrix(0.61993409,0,0,0.69625619,23.480724,26.637806)"><path
       style="display:inline;fill:#dce5d9;fill-opacity:1;stroke-width:1.06267"
       d="m 15.631639,39.189693 c 2.28e-4,-1.744754 0.407843,-3.405643 1.210172,-4.93097 1.729208,-3.287424 5.216607,-5.740016 9.699498,-6.821378 0.574829,-0.138661 0.936354,-0.209307 2.211939,-0.432232 0.57048,-0.0997 2.161945,-0.3785 3.536596,-0.619554 1.374652,-0.241056 4.585717,-0.803515 7.135686,-1.249911 2.549982,-0.446395 5.766664,-1.009746 7.148188,-1.251891 3.282412,-0.575321 4.386853,-0.768805 9.435104,-1.65292 2.323159,-0.406861 4.769412,-0.835433 5.436118,-0.952381 0.666706,-0.116948 4.428875,-0.775974 8.360376,-1.4645 3.931501,-0.688527 8.059203,-1.41162 9.172669,-1.606873 6.076002,-1.065462 5.700885,-1.004431 6.448363,-1.049135 0.869102,-0.05198 1.876126,0.03467 2.779081,0.239112 2.690865,0.609263 5.160489,2.321889 6.867279,4.762298 0.375895,0.537464 0.60151,0.906368 0.888272,1.452429 0.861885,1.641224 1.339496,3.336596 1.448864,5.143031 0.03105,0.512945 0.03464,5.039864 0.004,5.057901 -0.01207,0.0071 -0.116108,-0.01408 -0.231192,-0.04708 -0.763807,-0.219028 -1.670358,-0.382833 -2.571142,-0.464579 -0.158084,-0.01434 -0.95382,-0.03184 -1.7683,-0.03888 l -1.480875,-0.01279 v -2.125711 c 0,-1.28122 -0.01025,-2.22367 -0.02571,-2.372289 -0.288089,-2.762492 -2.332817,-5.288933 -4.660596,-5.758575 -0.347841,-0.07018 -0.940914,-0.08848 -1.274676,-0.03933 -0.137465,0.02024 -1.937007,0.332497 -3.998984,0.693899 -4.325147,0.758069 -10.500887,1.84009 -13.646533,2.390942 -1.195946,0.209429 -4.407006,0.771933 -7.135688,1.250011 -2.728681,0.478076 -6.215295,1.088828 -7.748031,1.357226 -1.532735,0.268397 -3.709058,0.649655 -4.836271,0.847238 -1.127213,0.197582 -2.870521,0.502973 -3.874016,0.678646 -1.003495,0.175672 -4.20893,0.737148 -7.123188,1.247721 -2.914259,0.510575 -6.035339,1.057174 -6.93574,1.214665 -0.900401,0.157491 -2.171326,0.372644 -2.824284,0.47812 -1.917949,0.309812 -2.685785,0.455028 -3.591208,0.679178 -2.121416,0.525187 -3.764283,1.320054 -5.187562,2.509897 -0.367231,0.307006 -1.025977,0.945935 -1.315069,1.275518 -0.52063,0.593557 -1.073848,1.359229 -1.414994,1.9584 -0.124188,0.218121 -0.138219,0.183067 -0.138147,-0.345251 z"
       id="path14" /><path
       style="display:inline;fill:#dce5d9;fill-opacity:1;stroke-width:0.999613"
       d="m 85.185463,69.335937 c -1.190248,-0.08901 -2.155557,-0.93401 -2.302285,-2.015359 -0.03355,-0.247287 -0.03437,-8.406442 -8.67e-4,-8.671118 0.112649,-0.889919 0.780979,-1.632444 1.724319,-1.915747 0.119385,-0.03585 0.303888,-0.07613 0.410007,-0.08951 0.140032,-0.01765 3.050164,-0.02252 10.611933,-0.01775 l 10.41898,0.0066 0.19295,0.04734 c 0.9207,0.225893 1.58867,0.825306 1.85251,1.662374 l 0.0529,0.167579 0.007,4.366636 c 0.005,3.232454 9e-5,4.409167 -0.0206,4.530384 -0.083,0.48642 -0.32489,0.911845 -0.72011,1.266936 -0.4266,0.383272 -0.92757,0.598146 -1.52363,0.653519 -0.16565,0.01539 -3.52372,0.02152 -10.425623,0.01903 -5.599705,-0.002 -10.224695,-0.0069 -10.277755,-0.01088 z"
       id="path10" /><g
       inkscape:groupmode="layer"
       id="layer6"
       inkscape:label="circle"
       style="display:inline;fill:#ffffff"><ellipse
         style="fill:#4be277;fill-opacity:1;stroke-width:1.86557;stroke-opacity:0.997746"
         id="path16"
         ry="16.828341"
         rx="17.943584"
         cy="26.038326"
         cx="67.755836" /></g><path
       style="display:inline;fill:#0e150e;fill-opacity:1;stroke-width:1.81984"
       d="m 99.176245,66.522 c -1.442184,-0.239429 -2.669017,-1.075324 -3.194582,-2.176607 -0.246134,-0.51576 -0.283473,-0.696318 -0.281822,-1.362799 0.0018,-0.730133 0.07443,-1.010159 0.407459,-1.571003 1.201069,-2.022723 4.35518,-2.647833 6.57575,-1.303246 1.16104,0.703015 1.8226,1.878155 1.73374,3.07964 -0.0671,0.906273 -0.44767,1.632941 -1.19275,2.277001 -0.65857,0.569263 -1.49153,0.940796 -2.40808,1.074095 -0.36855,0.05359 -1.27057,0.04421 -1.639715,-0.01717 z"
       id="path12" /><path
       style="display:inline;fill:#22c55e;fill-opacity:1"
       d="m 91.419105,91.680796 c 2.098454,-0.138439 4.073745,-0.803092 5.732388,-1.928857 1.3757,-0.933723 2.488341,-2.146642 3.247077,-3.539717 0.53163,-0.976117 0.84165,-1.906085 1.02989,-3.089395 l 0.0538,-0.338414 0.007,-6.063798 0.007,-6.063797 -8.285427,-0.0072 c -9.013658,-0.0078 -8.35941,0.0012 -8.866543,-0.122996 -1.601353,-0.392316 -2.758775,-1.626115 -2.930317,-3.123687 -0.03362,-0.293508 -0.03286,-8.545996 8.21e-4,-8.845582 0.09033,-0.803567 0.444094,-1.51474 1.048873,-2.108529 0.548379,-0.538413 1.284913,-0.912266 2.132244,-1.082293 l 0.232949,-0.04674 8.333659,-0.0065 8.333661,-0.0065 -0.008,-6.063919 c -0.008,-6.668152 0.003,-6.142449 -0.1527,-6.92633 -0.29551,-1.48619 -0.98025,-2.910201 -1.978982,-4.115554 -1.029179,-1.242095 -2.330979,-2.22864 -3.847479,-2.915743 -1.216977,-0.551393 -2.324915,-0.842256 -3.801532,-0.998 -0.3106,-0.03276 -2.963958,-0.03626 -32.825932,-0.0433 -22.299497,-0.0053 -32.650757,-5.27e-4 -33.006957,0.01509 -0.84985,0.03725 -1.4789,0.118691 -2.21017,0.286135 -2.5945,0.59408 -4.86736,2.053001 -6.37571,4.092488 -1.09256,1.477294 -1.69234,3.139248 -1.79369,4.970227 -0.018,0.325877 -0.0234,6.256831 -0.0178,19.701264 0.008,18.143576 0.0104,19.253614 0.0502,19.562528 0.15824,1.228438 0.4729,2.234845 1.01782,3.25543 0.93836,1.757435 2.38365,3.189792 4.23046,4.19258 1.42722,0.774958 3.06376,1.244775 4.7369,1.359863 0.39157,0.02693 65.497244,0.0281 65.905298,0.0012 z"
       id="path9" /><path
       style="display:inline;fill:#dce5d9;fill-opacity:1;stroke-width:1.00541"
       d="m 25.952563,91.754426 c -0.316256,-0.01315 -0.820773,-0.05624 -1.133107,-0.09679 -3.566243,-0.462989 -6.686224,-2.505543 -8.284446,-5.423579 -0.554514,-1.012435 -0.883668,-2.018573 -1.053532,-3.220394 -0.04306,-0.304945 -0.04478,-1.041227 -0.04478,-20.031941 0,-18.740203 0.002,-19.731019 0.04326,-20.031941 0.163,-1.192876 0.523875,-2.283252 1.090913,-3.296154 1.751851,-3.129316 5.198076,-5.196431 9.064492,-5.437057 0.284616,-0.01771 9.383669,-0.02223 33.584809,-0.01668 31.164614,0.0071 33.21371,0.0099 33.509713,0.04499 1.786095,0.21174 3.21966,0.664043 4.637654,1.463224 0.700034,0.394538 1.250085,0.792794 1.903745,1.378377 0.937306,0.839688 1.549556,1.600472 2.109326,2.621074 0.57533,1.048964 0.88275,1.986784 1.0664,3.253143 0.0376,0.25908 0.0418,0.811697 0.0494,6.33708 l 0.008,6.053249 -8.18026,3.45e-4 c -5.134165,2.17e-4 -8.289274,0.0083 -8.473034,0.02178 -0.532885,0.03902 -0.957784,0.140492 -1.415125,0.33796 -1.151766,0.497302 -1.964148,1.449063 -2.199167,2.576474 -0.04348,0.208586 -0.04551,0.419095 -0.04551,4.715967 v 4.497635 l 0.05493,0.22192 c 0.183428,0.741012 0.52562,1.306343 1.101939,1.820495 0.581225,0.518528 1.228559,0.830906 2.042533,0.985645 l 0.26521,0.05042 8.423652,0.0057 8.423662,0.0057 v 5.868514 c 0,5.899872 -0.003,6.118363 -0.0879,6.717821 -0.33812,2.384239 -1.67693,4.605964 -3.731522,6.192339 -1.056883,0.816034 -2.28353,1.449794 -3.582209,1.850787 -0.972468,0.300268 -1.947049,0.47129 -2.995315,0.525623 -0.281229,0.01458 -11.461251,0.02069 -33.215767,0.01816 -18.035519,-0.0021 -32.857725,-0.0065 -32.93825,-0.0099 z"
       id="path8" /><path
       d="m 70.128071,35.921853 q -1.493183,0 -2.336109,-0.16611 -0.842926,-0.193794 -1.348682,-0.719809 -0.505756,-0.526013 -1.035594,-1.605726 l -3.323538,-6.838183 v -0.775178 h 1.998939 q 2.023023,0 2.986367,-0.775179 0.963344,-0.802863 1.083762,-2.879235 H 62.084148 V 20.86124 h 6.069068 q -0.09633,-1.827206 -0.963344,-2.602385 -0.86701,-0.802863 -2.74553,-0.802863 h -2.360194 v -1.301193 h 11.343377 v 1.301193 h -4.142379 q 1.324597,1.190452 1.469099,3.405248 h 2.67328 v 1.301193 h -2.697363 q -0.09633,1.328878 -0.674341,2.436276 -0.578007,1.079713 -1.782187,1.771837 -1.180096,0.664439 -3.179035,0.747493 l 2.769614,5.42625 q 0.578006,1.107398 1.180097,1.661097 0.602089,0.553699 1.348681,0.553699 h 0.313087 v 1.162768 z"
       id="text16"
       style="font-size:26.4887px;font-family:Serif;-inkscape-font-specification:'Serif, Normal';display:inline;fill:#003915;fill-opacity:1;stroke-width:5.00167;stroke-opacity:0.997746"
       aria-label="₹" /><path
       d="m 30.318,80.431382 h 0.789328 q 0.770534,0 1.024246,0.07517 0.2913,0.112761 0.451044,0.328887 0.122158,0.150348 0.122158,0.40406 0,0.07517 -0.0094,0.169142 -0.0094,0.08457 -0.02819,0.187935 h 0.169142 l 0.385267,-1.503481 h -4.482253 l -0.05638,0.169142 h 0.09397 q 0.357077,0 0.479235,0.103364 0.122158,0.09397 0.122158,0.272506 0,0.216125 -0.131555,0.685963 l -1.09942,3.777496 q -0.169142,0.601392 -0.300697,0.798724 -0.06578,0.112761 -0.263109,0.206729 -0.112761,0.04698 -0.469838,0.06578 l -0.05638,0.169142 h 4.811139 l 0.601392,-1.7384 h -0.169141 q -0.451045,0.779931 -0.977263,1.108817 -0.526218,0.31949 -1.4471,0.31949 h -0.545012 q -0.31949,0 -0.394664,-0.06578 -0.112761,-0.09397 -0.112761,-0.216126 0,-0.150348 0.08457,-0.460441 l 0.601392,-2.067286 h 0.601393 q 0.451044,0 0.591995,0.05638 0.300696,0.122158 0.300696,0.507425 0,0.197332 -0.08457,0.479235 h 0.187935 l 0.638979,-2.264618 h -0.169141 q -0.216126,0.526218 -0.488632,0.704756 -0.291299,0.187935 -0.902088,0.187935 H 29.59445 Z m 4.538642,1.7384 -1.230975,0.216126 v 0.169141 q 0.07517,-0.0094 0.131554,-0.0094 0.06578,0 0.112761,0 0.338284,0 0.507425,0.122158 0.169142,0.122158 0.272506,0.422854 0.03759,0.08457 0.310093,1.183991 -0.05638,0.131555 -0.178538,0.34768 -0.122158,0.206729 -0.310093,0.498029 -0.366474,0.573202 -0.591996,0.75174 -0.09397,0.07517 -0.140951,0.07517 -0.05638,0 -0.187935,-0.103364 -0.150348,-0.150348 -0.310093,-0.150348 -0.140952,0 -0.234919,0.103364 -0.103364,0.103364 -0.103364,0.253712 0,0.178539 0.112761,0.272506 0.150348,0.122158 0.319489,0.122158 0.263109,0 0.545012,-0.225522 0.216126,-0.178538 0.507425,-0.582599 0.291299,-0.40406 0.648376,-1.024246 0.2913,1.362529 0.394664,1.550464 0.150348,0.281903 0.413457,0.281903 0.169142,0 0.432251,-0.197332 0.451044,-0.34768 0.732947,-0.902088 l -0.159745,-0.08457 q -0.178538,0.34768 -0.432251,0.554408 -0.131554,0.112762 -0.225522,0.112762 -0.02819,0 -0.05638,-0.0094 -0.02819,-0.01879 -0.06578,-0.06578 -0.03759,-0.04698 -0.07517,-0.150349 -0.03759,-0.103364 -0.07517,-0.281902 l -0.37587,-1.588052 q 0.385267,-0.685963 0.685963,-0.930279 0.159745,-0.131554 0.263109,-0.131554 0.06578,0 0.2913,0.07517 0.103364,0.03759 0.206728,0.03759 0.159745,0 0.2913,-0.112761 0.07517,-0.07518 0.07517,-0.234919 0,-0.150348 -0.122158,-0.253713 -0.112761,-0.112761 -0.310093,-0.112761 -0.131554,0 -0.244315,0.04698 -0.178539,0.07517 -0.413458,0.272506 -0.234919,0.197332 -0.394664,0.422854 l -0.40406,0.610789 Q 35.288895,82.818141 35.194927,82.649 35.082166,82.414081 34.856644,82.169765 Z"
       id="text17"
       style="font-size:9.44374px;font-family:TSCu_Times;-inkscape-font-specification:'TSCu_Times, Normal';display:inline;fill:#0e150e;fill-opacity:1;stroke-width:0.635103;stroke-opacity:0.997746"
       transform="scale(0.99758702,1.0024188)"
       aria-label="Ex" /></g></svg>
